<svg xmlns="http://www.w3.org/2000/svg" viewBox="0 0 64 64">
  <defs>
    <linearGradient id="g" x1="0%" y1="0%" x2="100%" y2="100%">
      <stop offset="0%" stop-color="#818cf8"/>
      <stop offset="100%" stop-color="#6366f1"/>
    </linearGradient>
  </defs>
  <path d="M28 4c-2 0-4 2-4 4v4c0 2-1 3-3 3h-1c-2 0-3 1-3 3v6c0 2 1 3 3 3h1c2 0 3 1 3 3v6c0 2 2 4 4 4h8c2 0 4-2 4-4v-4c0-2 1-3 3-3h1c2 0 3-1 3-3v-6c0-2-1-3-3-3h-1c-2 0-3-1-3-3V8c0-2-2-4-4-4z" fill="url(#g)" transform="translate(0,8) scale(1.0)"/>
  <rect x="8" y="8" width="48" height="48" rx="8" fill="none" stroke="url(#g)" stroke-width="3"/>
  <line x1="32" y1="8" x2="32" y2="56" stroke="url(#g)" stroke-width="2" opacity="0.5"/>
  <line x1="8" y1="32" x2="56" y2="32" stroke="url(#g)" stroke-width="2" opacity="0.5"/>
  <circle cx="22" cy="22" r="3" fill="#c7d2fe" opacity="0.8"/>
  <circle cx="42" cy="42" r="3" fill="#c7d2fe" opacity="0.8"/>
  <circle cx="42" cy="22" r="3" fill="#c7d2fe" opacity="0.8"/>
  <circle cx="22" cy="42" r="3" fill="#c7d2fe" opacity="0.8"/>
</svg>
