<svg xmlns="http://www.w3.org/2000/svg" viewBox="0 0 32 32">
  <rect width="32" height="32" rx="6" fill="#6366f1"/>
  <path d="M7 7h8v8H7zM17 7h8v8h-8zM7 17h8v8H7zM17 17h8v8h-8z" fill="#818cf8" rx="1"/>
  <path d="M13.5 11a2.5 2.5 0 1 0 5 0 2.5 2.5 0 1 0-5 0z" fill="#6366f1"/>
  <path d="M13.5 21a2.5 2.5 0 1 0 5 0 2.5 2.5 0 1 0-5 0z" fill="#6366f1"/>
  <path d="M11 13.5a2.5 2.5 0 1 0 0 5 2.5 2.5 0 1 0 0-5z" fill="#6366f1"/>
  <path d="M21 13.5a2.5 2.5 0 1 0 0 5 2.5 2.5 0 1 0 0-5z" fill="#6366f1"/>
</svg>
